<svg xmlns="http://www.w3.org/2000/svg" width="31" height="31" viewBox="0 0 31 31">
  <metadata><?xpacket begin="﻿" id="W5M0MpCehiHzreSzNTczkc9d"?>
<x:xmpmeta xmlns:x="adobe:ns:meta/" x:xmptk="Adobe XMP Core 5.6-c142 79.160924, 2017/07/13-01:06:39        ">
   <rdf:RDF xmlns:rdf="http://www.w3.org/1999/02/22-rdf-syntax-ns#">
      <rdf:Description rdf:about=""/>
   </rdf:RDF>
</x:xmpmeta>
                                                                                                    
                                                                                                    
                                                                                                    
                                                                                                    
                                                                                                    
                                                                                                    
                                                                                                    
                                                                                                    
                                                                                                    
                                                                                                    
                                                                                                    
                                                                                                    
                                                                                                    
                                                                                                    
                                                                                                    
                                                                                                    
                                                                                                    
                                                                                                    
                                                                                                    
                                                                                                    
                           
<?xpacket end="w"?></metadata>
<defs>
    <style>
      .cls-1 {
        fill: #fff;
        fill-rule: evenodd;
      }
    </style>
  </defs>
  <path class="cls-1" d="M527,100.867l-1.756-20.1a0.758,0.758,0,0,0-.759-0.7h-7.008a5.978,5.978,0,1,0-11.954,0h-7.009a0.767,0.767,0,0,0-.758.7L496,100.867v0.071A4.314,4.314,0,0,0,500.517,105h21.966A4.314,4.314,0,0,0,527,100.938v-0.071ZM511.5,75.54a4.5,4.5,0,0,1,4.46,4.524h-8.92A4.5,4.5,0,0,1,511.5,75.54Zm10.983,27.913H500.517a2.8,2.8,0,0,1-3-2.489l1.693-19.36h6.314v2.7a0.759,0.759,0,1,0,1.517,0V81.6h8.92v2.7a0.759,0.759,0,1,0,1.517,0V81.6h6.313l1.694,19.366A2.8,2.8,0,0,1,522.483,103.453Z" transform="translate(-496 -74)"/>
</svg>
