<svg xmlns="http://www.w3.org/2000/svg" width="35.427" height="30.999" viewBox="0 0 32 28">
  <metadata><?xpacket begin="﻿" id="W5M0MpCehiHzreSzNTczkc9d"?>
<x:xmpmeta xmlns:x="adobe:ns:meta/" x:xmptk="Adobe XMP Core 5.6-c142 79.160924, 2017/07/13-01:06:39        ">
   <rdf:RDF xmlns:rdf="http://www.w3.org/1999/02/22-rdf-syntax-ns#">
      <rdf:Description rdf:about=""/>
   </rdf:RDF>
</x:xmpmeta>
                                                                                                    
                                                                                                    
                                                                                                    
                                                                                                    
                                                                                                    
                                                                                                    
                                                                                                    
                                                                                                    
                                                                                                    
                                                                                                    
                                                                                                    
                                                                                                    
                                                                                                    
                                                                                                    
                                                                                                    
                                                                                                    
                                                                                                    
                                                                                                    
                                                                                                    
                                                                                                    
                           
<?xpacket end="w"?></metadata>
<defs>
    <style>
      .cls-1 {
        fill: #fff;
        fill-rule: evenodd;
      }
    </style>
  </defs>
  <path class="cls-1" d="M623.571,78.6a8.891,8.891,0,0,0-12.53.007l-0.875.871-0.888-.885a8.882,8.882,0,0,0-12.53-.013,8.781,8.781,0,0,0,.014,12.471l12.74,12.68a0.911,0.911,0,0,0,1.288.007l12.767-12.66A8.8,8.8,0,0,0,623.571,78.6Zm-1.3,11.188-12.122,12.019-12.1-12.039A6.989,6.989,0,0,1,603,77.829a7.017,7.017,0,0,1,4.979,2.053l1.533,1.526a0.917,0.917,0,0,0,1.3,0L612.33,79.9a7.049,7.049,0,0,1,9.938-.007A6.985,6.985,0,0,1,622.268,89.787Z" transform="translate(-594.156 -76)"/>
</svg>
