<svg xmlns="http://www.w3.org/2000/svg" width="23.766" height="30.999" viewBox="0 0 23 30">
  <metadata><?xpacket begin="﻿" id="W5M0MpCehiHzreSzNTczkc9d"?>
<x:xmpmeta xmlns:x="adobe:ns:meta/" x:xmptk="Adobe XMP Core 5.6-c142 79.160924, 2017/07/13-01:06:39        ">
   <rdf:RDF xmlns:rdf="http://www.w3.org/1999/02/22-rdf-syntax-ns#">
      <rdf:Description rdf:about=""/>
   </rdf:RDF>
</x:xmpmeta>
                                                                                                    
                                                                                                    
                                                                                                    
                                                                                                    
                                                                                                    
                                                                                                    
                                                                                                    
                                                                                                    
                                                                                                    
                                                                                                    
                                                                                                    
                                                                                                    
                                                                                                    
                                                                                                    
                                                                                                    
                                                                                                    
                                                                                                    
                                                                                                    
                                                                                                    
                                                                                                    
                           
<?xpacket end="w"?></metadata>
<defs>
    <style>
      .cls-1 {
        fill: #fff;
        fill-rule: evenodd;
      }
    </style>
  </defs>
  <path class="cls-1" d="M399,95.508a3.856,3.856,0,0,1,1.949-2.895c0.1-.066.183-0.146,0.278-0.215,0.379-.272,4.756-2.549,5.141-2.813a1.1,1.1,0,1,1,1.271,1.793c-0.639.479-5.278,2.956-5.923,3.427a1.17,1.17,0,0,0-.5,1.026c0.01,2.216,0,4.433,0,6.65v0.285h18.565v-0.307c0-2.2-.006-4.394.006-6.59a1.27,1.27,0,0,0-.524-1.077,31.451,31.451,0,0,0-5.467-3.513,1.584,1.584,0,0,1-.96-1.584c0.021-1.21.01-2.421,0-3.632a1.292,1.292,0,0,1,.517-1.146,0.884,0.884,0,0,0,.353-0.765c0-1.377.01-2.753,0-4.13a2.72,2.72,0,0,0-2.7-2.8,5.9,5.9,0,0,0-1.679.1A2.665,2.665,0,0,0,407.3,80c-0.019,1.4,0,2.792,0,4.189a0.863,0.863,0,0,0,.351.736,1.3,1.3,0,0,1,.518,1.147c-0.007,1.279,0,2.558,0,3.837a1.1,1.1,0,0,1-1.363,1.151,1.114,1.114,0,0,1-.838-1.157c0-1.1,0-2.207-.006-3.31a0.614,0.614,0,0,0-.12-0.368,3.086,3.086,0,0,1-.73-2.05c0-1.513-.026-3.028.03-4.54a4.914,4.914,0,0,1,4.133-4.569A2.358,2.358,0,0,0,409.507,75h1.985a1.791,1.791,0,0,0,.219.061,4.9,4.9,0,0,1,4.161,4.569c0.057,1.511.033,3.025,0.031,4.538a3.1,3.1,0,0,1-.73,2.05,0.62,0.62,0,0,0-.12.368c-0.01.859,0,1.718-.011,2.577a0.39,0.39,0,0,0,.248.4,33.246,33.246,0,0,1,4.621,2.946,11.88,11.88,0,0,1,1.432,1.279,3.1,3.1,0,0,1,.657,1.72V104a1.31,1.31,0,0,1-.876.995H399.876A1.31,1.31,0,0,1,399,104v-8.5ZM400,98h9l-8,9h-6Z" transform="translate(-399 -75)"/>
</svg>
